<?xml version="1.0" encoding="UTF-8"?> <svg xmlns="http://www.w3.org/2000/svg" width="57" height="93" viewBox="0 0 57 93" fill="none"> <path fill-rule="evenodd" clip-rule="evenodd" d="M11.5495 91.996C13.2282 90.4607 13.3971 87.8742 11.9881 85.2872C11.6309 84.6313 11.3587 84.0215 11.3833 83.9322C11.4081 83.8426 12.4266 83.6404 13.6469 83.483C33.3403 80.9379 48.0027 66.8369 54.0921 44.5862C55.3312 40.0588 55.9426 36.4195 56.2455 31.7696C57.108 18.5287 52.9562 6.61693 45.6367 1.333C43.5281 -0.189092 42.8033 -0.150971 42.3046 1.50826C41.9847 2.57234 42.0804 2.79525 43.6484 4.63525C50.7861 13.0111 53.6859 26.483 51.1807 39.6283C49.0021 51.0598 42.8289 61.8107 34.5664 68.5623C29.4805 72.7183 23.5611 75.2787 16.3129 76.4573C15.1711 76.643 14.2237 76.7432 14.2078 76.6799C14.1919 76.6166 15.6023 75.397 17.342 73.9698C19.2914 72.3703 20.6408 71.0865 20.8592 70.6232C21.6381 68.9717 21.0937 66.2532 19.9122 65.8954C19.2135 65.6838 18.8386 65.8919 15.8488 68.1527C12.669 70.5572 8.41247 73.4299 4.81679 75.5981C2.0424 77.2711 1.22576 78.1157 0.703819 79.8521C0.103249 81.85 0.498196 82.9963 2.18579 84.1548C3.73233 85.2165 6.05552 87.6598 7.90427 90.1696C9.79694 92.7391 10.4042 93.0433 11.5495 91.996Z" fill="url(#paint0_linear_306_296)"></path> <defs> <linearGradient id="paint0_linear_306_296" x1="17.6314" y1="94.7511" x2="88.216" y2="-68.8554" gradientUnits="userSpaceOnUse"> <stop stop-color="#DE99D8"></stop> <stop offset="0.2125" stop-color="#DE99D8"></stop> <stop offset="1" stop-color="white"></stop> </linearGradient> </defs> </svg> 