<?xml version="1.0" encoding="UTF-8"?> <svg xmlns="http://www.w3.org/2000/svg" width="456" height="119" viewBox="0 0 456 119" fill="none"> <path d="M61.3015 25.256C54.1655 25.256 49.4295 20.552 49.4295 13.48C49.4295 6.44 54.1655 1.736 61.3015 1.736C68.3735 1.736 73.1095 6.44 73.1095 13.48C73.1095 20.552 68.3735 25.256 61.3015 25.256ZM61.3975 24.68C67.1895 24.68 70.3255 21 70.3255 14.088C70.3255 6.44 67.0935 2.312 61.1735 2.312C55.3495 2.312 52.2135 6.024 52.2135 12.904C52.2135 20.584 55.4135 24.68 61.3975 24.68ZM77.3578 25V24.712H79.7898C81.3258 24.712 81.4858 24.552 81.4858 23.016V2.568H79.5658C76.4938 2.568 75.4058 3.176 75.2458 6.248L75.1178 7.592L74.5738 7.528L75.0538 0.103998L75.3738 0.136L75.2458 1.992H90.1578L89.9978 0.167999L90.3498 0.136L90.8298 7.528L90.2537 7.592L90.1578 6.248C89.9338 3.176 88.9098 2.568 85.8378 2.568H83.9818V23.016C83.9818 24.552 84.1418 24.712 85.6778 24.712H88.0458V25H77.3578ZM92.1825 13.416C92.1825 6.408 96.6305 1.736 103.351 1.736C105.495 1.736 107.575 2.408 109.207 3.784C109.367 3.944 109.495 4.2 109.559 4.424L109.783 4.36C109.719 4.104 109.687 3.784 109.687 3.432L109.623 1.128L109.911 1.096L110.199 10.344L109.623 10.376L109.527 7.4C109.367 4.52 106.263 2.28 103.095 2.28C97.8465 2.28 95.0305 6.024 95.0305 12.904C95.0305 20.584 97.9745 24.68 103.447 24.68C106.487 24.68 109.431 23.016 110.551 20.328L111.095 20.52C109.815 23.72 106.743 25.256 103.383 25.256C96.6625 25.256 92.1825 20.52 92.1825 13.416ZM114.411 22.728C114.859 22.824 115.755 22.952 116.203 22.952C118.571 22.952 119.467 21.896 120.107 20.36L120.363 19.752C120.459 19.528 120.523 19.24 120.523 18.952C120.523 18.632 120.459 18.312 120.331 17.96L114.379 4.264C113.771 2.792 113.547 2.28 112.459 2.28H111.979V1.992H118.155V2.28H115.883V2.344C116.331 2.504 116.683 3.272 116.939 3.848L121.547 14.344C121.739 14.792 121.771 15.496 121.771 15.688V15.752L121.995 15.688L126.475 4.264C126.603 3.944 126.699 3.592 126.699 3.304C126.699 2.728 126.315 2.28 125.131 2.28H123.659V1.992H129.163V2.248H128.971C127.915 2.248 127.659 2.856 127.115 4.264L120.363 21.352C119.307 23.976 117.675 25.256 116.043 25.256C114.955 25.256 114.411 24.424 114.411 22.728ZM132.67 25V24.712H135.102C136.638 24.712 136.798 24.552 136.798 23.016V2.568H134.878C131.806 2.568 130.718 3.176 130.558 6.248L130.43 7.592L129.886 7.528L130.366 0.103998L130.686 0.136L130.558 1.992H145.47L145.31 0.167999L145.662 0.136L146.142 7.528L145.566 7.592L145.47 6.248C145.246 3.176 144.222 2.568 141.15 2.568H139.294V23.016C139.294 24.552 139.454 24.712 140.99 24.712H143.358V25H132.67ZM147.495 13.416C147.495 6.408 151.943 1.736 158.663 1.736C160.807 1.736 162.887 2.408 164.519 3.784C164.679 3.944 164.807 4.2 164.871 4.424L165.095 4.36C165.031 4.104 164.999 3.784 164.999 3.432L164.935 1.128L165.223 1.096L165.511 10.344L164.935 10.376L164.839 7.4C164.679 4.52 161.575 2.28 158.407 2.28C153.159 2.28 150.343 6.024 150.343 12.904C150.343 20.584 153.287 24.68 158.759 24.68C161.799 24.68 164.743 23.016 165.863 20.328L166.407 20.52C165.127 23.72 162.055 25.256 158.695 25.256C151.975 25.256 147.495 20.52 147.495 13.416ZM170.17 25V24.712H172.602C174.138 24.712 174.298 24.552 174.298 23.016V2.568H172.378C169.306 2.568 168.218 3.176 168.058 6.248L167.93 7.592L167.386 7.528L167.866 0.103998L168.186 0.136L168.058 1.992H182.97L182.81 0.167999L183.162 0.136L183.642 7.528L183.066 7.592L182.97 6.248C182.746 3.176 181.722 2.568 178.65 2.568H176.794V23.016C176.794 24.552 176.954 24.712 178.49 24.712H180.858V25H170.17ZM189.469 24.424H193.117C197.085 24.424 199.741 21.992 199.741 18.344C199.741 14.504 196.893 11.752 192.925 11.752H191.229V11.208H192.509C195.325 11.208 197.373 9.416 197.373 6.888C197.373 4.296 195.229 2.568 192.061 2.568H189.469V2.6C189.853 2.984 190.013 3.528 190.013 4.264V22.728C190.013 23.464 189.853 23.976 189.469 24.36V24.424ZM184.701 25V24.712H185.821C187.357 24.712 187.517 24.552 187.517 23.016V3.976C187.517 2.44 187.357 2.28 185.821 2.28H184.701V1.992H192.509C197.053 1.992 200.093 3.944 200.093 6.824C200.093 8.648 198.429 10.888 195.485 11.304V11.432C199.645 11.72 202.525 15.08 202.525 18.344C202.525 22.344 198.653 25 193.693 25H184.701ZM203.639 25V24.712H204.759C206.295 24.712 206.455 24.264 206.455 22.728V4.264C206.455 2.728 206.295 2.28 204.759 2.28H203.639V1.992H211.51V2.28H210.679C209.143 2.28 208.951 2.728 208.951 4.264V22.824L218.039 1.992H223.062V2.28H221.911C220.375 2.28 220.215 2.728 220.215 4.264V22.728C220.215 24.264 220.375 24.712 221.911 24.712H223.062V25H215.159V24.712H216.023C217.559 24.712 217.719 24.264 217.719 22.728V4.168L208.631 25H203.639ZM234.506 18.408H234.218V16.648C234.218 13.576 232.554 13.224 230.762 13.224H229.482V22.728C229.482 23.432 229.162 24.008 228.778 24.392V24.424H235.146C238.218 24.424 239.69 23.176 239.914 20.104L240.106 17.544H240.618L240.074 26.216H239.786L239.882 24.712H239.85C239.626 24.936 239.178 25 238.666 25H224.17V24.712H225.29C226.826 24.712 226.986 24.552 226.986 23.016V3.976C226.986 2.44 226.826 2.28 225.29 2.28H224.17V1.992H236.938C237.45 1.992 237.898 2.056 238.122 2.28H238.154L238.058 0.807999L238.346 0.775999L238.922 9.448H238.346L238.218 7.208C238.026 3.752 236.362 2.568 233.29 2.568H228.778V2.6C229.162 2.984 229.482 3.56 229.482 4.264V12.648H230.762C232.554 12.648 234.218 12.328 234.218 9.256V8.136H234.506V18.408ZM279.19 21.096C273.398 21.096 269.558 17.224 269.558 11.4C269.558 5.608 273.398 1.736 279.19 1.736C284.918 1.736 288.758 5.608 288.758 11.4C288.758 17.224 284.918 21.096 279.19 21.096ZM279.286 20.52C283.606 20.52 285.974 17.544 285.974 12.008C285.974 5.736 283.542 2.312 279.062 2.312C274.678 2.312 272.342 5.32 272.342 10.824C272.342 17.128 274.742 20.52 279.286 20.52ZM250.326 25V24.712H251.446C252.982 24.712 253.142 24.52 253.142 22.728V3.976C253.142 2.44 252.982 2.28 251.446 2.28H250.326V1.992H257.654V2.28H257.366C255.798 2.28 255.638 2.408 255.638 3.912V11.176C256.79 11.176 257.398 11.112 257.718 10.728L262.774 4.36C263.158 3.88 263.35 3.464 263.35 3.176C263.35 2.568 262.678 2.28 261.686 2.28H261.398V1.992H268.63V2.28H268.086C266.678 2.28 264.726 2.792 263.382 4.488L258.294 10.92L258.326 11.048C261.334 11.752 263.254 14.408 265.302 17.288C268.054 21.256 271.19 25.544 277.846 25.544C282.774 25.544 286.806 22.824 287.83 21.96L288.534 21.352L288.726 21.576L288.022 22.184C285.814 24.072 281.43 26.536 276.662 26.536C268.918 26.536 265.078 21.128 262.038 16.776C259.99 13.864 258.294 11.464 256.022 11.464H255.638V22.728C255.638 22.792 255.638 22.856 255.638 22.888C255.638 24.552 255.862 24.712 257.366 24.712H258.486V25H250.326ZM290.326 25V24.712H291.446C292.982 24.712 293.142 24.264 293.142 22.728V4.264C293.142 2.728 292.982 2.28 291.446 2.28H290.326V1.992H298.198V2.28H297.366C295.83 2.28 295.638 2.728 295.638 4.264V12.616H304.406V4.264C304.406 2.728 304.214 2.28 302.678 2.28H301.846V1.992H309.75V2.28H308.598C307.062 2.28 306.902 2.728 306.902 4.264V22.728C306.902 24.264 307.062 24.712 308.598 24.712H309.75V25H301.846V24.712H302.71C304.246 24.712 304.406 24.264 304.406 22.728V13.192H295.638V22.728C295.638 24.264 295.83 24.712 297.366 24.712H298.198V25H290.326ZM313.545 25V24.712H315.977C317.513 24.712 317.673 24.552 317.673 23.016V2.568H315.753C312.681 2.568 311.593 3.176 311.433 6.248L311.305 7.592L310.761 7.528L311.241 0.103998L311.561 0.136L311.433 1.992H326.345L326.185 0.167999L326.537 0.136L327.017 7.528L326.441 7.592L326.345 6.248C326.121 3.176 325.097 2.568 322.025 2.568H320.169V23.016C320.169 24.552 320.329 24.712 321.865 24.712H324.233V25H313.545ZM325.256 25V24.712H325.768C326.568 24.712 327.048 23.816 327.528 22.728L336.488 1.992H338.984V2.376C338.984 3.016 339.112 3.848 339.272 4.232L346.824 22.728C347.464 24.264 347.656 24.712 348.712 24.712H348.968V25H342.856V24.712H345.32V24.648C344.904 24.488 344.552 23.688 344.328 23.144L342.536 18.76H329.864L328.136 22.728C328.008 23.016 327.944 23.24 327.944 23.464C327.944 24.232 328.552 24.712 329.512 24.712H331.08V25H325.256ZM330.088 18.184H342.28L336.872 4.84C336.648 4.328 336.616 3.912 336.616 3.56H336.328C336.328 3.752 336.232 4.168 335.944 4.84L330.088 18.184ZM349.826 25V24.712H350.946C352.482 24.712 352.642 24.52 352.642 22.728V3.976C352.642 2.44 352.482 2.28 350.946 2.28H349.826V1.992H357.154V2.28H356.866C355.33 2.28 355.138 2.44 355.138 3.976V11.176C356.29 11.176 356.898 11.112 357.218 10.728L362.274 4.36C362.658 3.88 362.85 3.464 362.85 3.176C362.85 2.568 362.178 2.28 361.186 2.28H360.898V1.992H367.97V2.28H367.586C366.178 2.28 364.226 2.792 362.882 4.488L357.794 10.92L357.826 11.048C362.914 12.232 363.522 16.36 363.97 20.04C364.29 22.568 364.546 24.584 366.434 24.584C366.882 24.584 367.394 24.424 367.97 23.976L368.386 23.624L368.578 23.848L368.162 24.2C367.266 25 366.37 25.384 365.57 25.384C362.466 25.384 361.922 22.344 361.346 19.08C360.674 15.336 359.97 11.464 355.522 11.464H355.138V22.728C355.138 24.52 355.33 24.712 356.866 24.712H357.986V25H349.826ZM370.858 25V24.712H373.29C374.826 24.712 374.986 24.552 374.986 23.016V2.568H373.066C369.994 2.568 368.906 3.176 368.746 6.248L368.618 7.592L368.074 7.528L368.554 0.103998L368.874 0.136L368.746 1.992H383.658L383.498 0.167999L383.85 0.136L384.33 7.528L383.754 7.592L383.658 6.248C383.434 3.176 382.41 2.568 379.338 2.568H377.482V23.016C377.482 24.552 377.642 24.712 379.178 24.712H381.546V25H370.858ZM382.569 25V24.712H383.081C383.881 24.712 384.361 23.816 384.841 22.728L393.801 1.992H396.297V2.376C396.297 3.016 396.425 3.848 396.585 4.232L404.137 22.728C404.777 24.264 404.969 24.712 406.025 24.712H406.281V25H400.169V24.712H402.633V24.648C402.217 24.488 401.865 23.688 401.641 23.144L399.849 18.76H387.177L385.449 22.728C385.321 23.016 385.257 23.24 385.257 23.464C385.257 24.232 385.865 24.712 386.825 24.712H388.393V25H382.569ZM387.401 18.184H399.593L394.185 4.84C393.961 4.328 393.929 3.912 393.929 3.56H393.641C393.641 3.752 393.545 4.168 393.257 4.84L387.401 18.184ZM0.541875 59.416C0.541875 52.408 4.98988 47.736 11.7099 47.736C13.8539 47.736 15.9339 48.408 17.5659 49.784C17.7259 49.944 17.8539 50.2 17.9179 50.424L18.1419 50.36C18.0779 50.104 18.0459 49.784 18.0459 49.432L17.9819 47.128L18.2699 47.096L18.5579 56.344L17.9819 56.376L17.8859 53.4C17.7259 50.52 14.6219 48.28 11.4539 48.28C6.20588 48.28 3.38988 52.024 3.38988 58.904C3.38988 66.584 6.33388 70.68 11.8059 70.68C14.8459 70.68 17.7899 69.016 18.9099 66.328L19.4539 66.52C18.1739 69.72 15.1019 71.256 11.7419 71.256C5.02188 71.256 0.541875 66.52 0.541875 59.416ZM29.9169 59.416C29.9169 52.408 34.3649 47.736 41.0849 47.736C43.2289 47.736 45.3089 48.408 46.9409 49.784C47.1009 49.944 47.2289 50.2 47.2929 50.424L47.5169 50.36C47.4529 50.104 47.4209 49.784 47.4209 49.432L47.3569 47.128L47.6449 47.096L47.9329 56.344L47.3569 56.376L47.2609 53.4C47.1009 50.52 43.9969 48.28 40.8289 48.28C35.5809 48.28 32.7649 52.024 32.7649 58.904C32.7649 66.584 35.7089 70.68 41.1809 70.68C44.2209 70.68 47.1649 69.016 48.2849 66.328L48.8289 66.52C47.5489 69.72 44.4769 71.256 41.1169 71.256C34.3969 71.256 29.9169 66.52 29.9169 59.416ZM62.5359 71.256C55.3999 71.256 50.6639 66.552 50.6639 59.48C50.6639 52.44 55.3999 47.736 62.5359 47.736C69.6079 47.736 74.3439 52.44 74.3439 59.48C74.3439 66.552 69.6079 71.256 62.5359 71.256ZM62.6319 70.68C68.4239 70.68 71.5599 67 71.5599 60.088C71.5599 52.44 68.3279 48.312 62.4079 48.312C56.5839 48.312 53.4479 52.024 53.4479 58.904C53.4479 66.584 56.6479 70.68 62.6319 70.68ZM75.9041 71V70.68H77.0241C78.5601 70.68 78.7201 70.52 78.7201 68.984V49.976C78.7201 48.44 78.5601 48.28 77.0241 48.28H75.9041V47.992H89.2161C89.7281 47.992 89.8561 48.056 90.0801 48.28H90.1121L89.9841 46.104L90.2721 46.072L90.8801 55.448H90.3041L90.1761 53.208C89.9521 49.784 87.4561 48.568 84.3841 48.568H80.5121V48.6C80.8961 48.984 81.2161 49.56 81.2161 50.264V58.52H83.4561C89.2481 58.52 93.0881 61.016 93.0881 64.76C93.0881 68.504 89.5681 71 84.2881 71H75.9041ZM81.2161 59.064V68.728C81.2161 69.464 81.0561 69.976 80.6721 70.36V70.424H83.6801C87.9681 70.424 90.3041 68.472 90.3041 64.76C90.3041 61.08 87.9041 59.064 83.4881 59.064H81.2161ZM106.505 71.256C99.3686 71.256 94.6326 66.552 94.6326 59.48C94.6326 52.44 99.3686 47.736 106.505 47.736C113.577 47.736 118.313 52.44 118.313 59.48C118.313 66.552 113.577 71.256 106.505 71.256ZM106.601 70.68C112.393 70.68 115.529 67 115.529 60.088C115.529 52.44 112.297 48.312 106.377 48.312C100.553 48.312 97.4166 52.024 97.4166 58.904C97.4166 66.584 100.617 70.68 106.601 70.68ZM119.873 71V70.712H120.993C122.529 70.712 122.689 70.264 122.689 68.728V50.264C122.689 48.728 122.529 48.28 120.993 48.28H119.873V47.992H127.745V48.28H126.913C125.377 48.28 125.185 48.728 125.185 50.264V68.824L134.273 47.992H139.297V48.28H138.145C136.609 48.28 136.449 48.728 136.449 50.264V68.728C136.449 70.264 136.609 70.712 138.145 70.712H139.297V71H131.393V70.712H132.257C133.793 70.712 133.953 70.264 133.953 68.728V50.168L124.865 71H119.873ZM125.633 42.232L126.785 42.136C126.785 43.896 128.225 45.336 130.049 45.336C131.841 45.336 133.313 43.896 133.313 42.136L134.465 42.232C134.465 44.312 132.481 45.912 130.049 45.912C127.585 45.912 125.633 44.312 125.633 42.232ZM148.904 71V70.712H150.024C151.56 70.712 151.72 70.264 151.72 68.728V50.264C151.72 48.728 151.56 48.28 150.024 48.28H148.904V47.992H156.776V48.28H155.944C154.408 48.28 154.216 48.728 154.216 50.264V68.824L163.304 47.992H168.328V48.28H167.176C165.64 48.28 165.48 48.728 165.48 50.264V68.728C165.48 70.264 165.64 70.712 167.176 70.712H168.328V71H160.424V70.712H161.288C162.824 70.712 162.984 70.264 162.984 68.728V50.168L153.896 71H148.904ZM178.479 59.416C178.479 52.408 182.927 47.736 189.647 47.736C191.791 47.736 193.871 48.408 195.503 49.784C195.663 49.944 195.791 50.2 195.855 50.424L196.079 50.36C196.015 50.104 195.983 49.784 195.983 49.432L195.919 47.128L196.207 47.096L196.495 56.344L195.919 56.376L195.823 53.4C195.663 50.52 192.559 48.28 189.391 48.28C184.143 48.28 181.327 52.024 181.327 58.904C181.327 66.584 184.271 70.68 189.743 70.68C192.783 70.68 195.727 69.016 196.847 66.328L197.391 66.52C196.111 69.72 193.039 71.256 189.679 71.256C182.959 71.256 178.479 66.52 178.479 59.416ZM203.578 70.424H207.226C211.194 70.424 213.85 67.992 213.85 64.344C213.85 60.504 211.002 57.752 207.034 57.752H205.338V57.208H206.618C209.434 57.208 211.482 55.416 211.482 52.888C211.482 50.296 209.338 48.568 206.17 48.568H203.578V48.6C203.962 48.984 204.122 49.528 204.122 50.264V68.728C204.122 69.464 203.962 69.976 203.578 70.36V70.424ZM198.81 71V70.712H199.93C201.466 70.712 201.626 70.552 201.626 69.016V49.976C201.626 48.44 201.466 48.28 199.93 48.28H198.81V47.992H206.618C211.162 47.992 214.202 49.944 214.202 52.824C214.202 54.648 212.538 56.888 209.594 57.304V57.432C213.754 57.72 216.634 61.08 216.634 64.344C216.634 68.344 212.762 71 207.802 71H198.81ZM230.036 71.256C222.9 71.256 218.164 66.552 218.164 59.48C218.164 52.44 222.9 47.736 230.036 47.736C237.108 47.736 241.844 52.44 241.844 59.48C241.844 66.552 237.108 71.256 230.036 71.256ZM230.132 70.68C235.924 70.68 239.06 67 239.06 60.088C239.06 52.44 235.828 48.312 229.908 48.312C224.084 48.312 220.948 52.024 220.948 58.904C220.948 66.584 224.148 70.68 230.132 70.68ZM253.74 64.408H253.452V62.648C253.452 59.576 251.788 59.224 249.996 59.224H248.716V68.728C248.716 69.432 248.396 70.008 248.012 70.392V70.424H254.38C257.452 70.424 258.924 69.176 259.148 66.104L259.34 63.544H259.852L259.308 72.216H259.02L259.116 70.712H259.084C258.86 70.936 258.412 71 257.9 71H243.404V70.712H244.524C246.06 70.712 246.22 70.552 246.22 69.016V49.976C246.22 48.44 246.06 48.28 244.524 48.28H243.404V47.992H256.172C256.684 47.992 257.132 48.056 257.356 48.28H257.388L257.292 46.808L257.58 46.776L258.156 55.448H257.58L257.452 53.208C257.26 49.752 255.596 48.568 252.524 48.568H248.012V48.6C248.396 48.984 248.716 49.56 248.716 50.264V58.648H249.996C251.788 58.648 253.452 58.328 253.452 55.256V54.136H253.74V64.408ZM261.06 71V70.712H262.18C263.716 70.712 263.876 70.264 263.876 68.728V50.264C263.876 48.728 263.716 48.28 262.18 48.28H261.06V47.992H268.932V48.28H268.1C266.564 48.28 266.372 48.728 266.372 50.264V68.824L275.46 47.992H280.484V48.28H279.332C277.796 48.28 277.636 48.728 277.636 50.264V68.728C277.636 70.264 277.796 70.712 279.332 70.712H280.484V71H272.58V70.712H273.444C274.98 70.712 275.14 70.264 275.14 68.728V50.168L266.052 71H261.06ZM266.82 42.232L267.972 42.136C267.972 43.896 269.412 45.336 271.236 45.336C273.028 45.336 274.5 43.896 274.5 42.136L275.652 42.232C275.652 44.312 273.668 45.912 271.236 45.912C268.772 45.912 266.82 44.312 266.82 42.232ZM290.092 71V70.712H291.212C292.748 70.712 292.908 70.264 292.908 68.728V50.264C292.908 48.728 292.748 48.28 291.212 48.28H290.092V47.992H297.964V48.28H297.132C295.596 48.28 295.404 48.728 295.404 50.264V68.824L304.492 47.992H309.516V48.28H308.364C306.828 48.28 306.668 48.728 306.668 50.264V68.728C306.668 70.264 306.828 70.712 308.364 70.712H309.516V71H301.612V70.712H302.476C304.012 70.712 304.172 70.264 304.172 68.728V50.168L295.084 71H290.092ZM311.167 59.416C311.167 52.408 315.615 47.736 322.335 47.736C324.479 47.736 326.559 48.408 328.191 49.784C328.351 49.944 328.479 50.2 328.543 50.424L328.767 50.36C328.703 50.104 328.671 49.784 328.671 49.432L328.607 47.128L328.895 47.096L329.183 56.344L328.607 56.376L328.511 53.4C328.351 50.52 325.247 48.28 322.079 48.28C316.831 48.28 314.015 52.024 314.015 58.904C314.015 66.584 316.959 70.68 322.431 70.68C325.471 70.68 328.415 69.016 329.535 66.328L330.079 66.52C328.799 69.72 325.727 71.256 322.367 71.256C315.647 71.256 311.167 66.52 311.167 59.416ZM333.842 71V70.712H336.274C337.81 70.712 337.97 70.552 337.97 69.016V48.568H336.05C332.978 48.568 331.89 49.176 331.73 52.248L331.602 53.592L331.058 53.528L331.538 46.104L331.858 46.136L331.73 47.992H346.642L346.482 46.168L346.834 46.136L347.314 53.528L346.738 53.592L346.642 52.248C346.418 49.176 345.394 48.568 342.322 48.568H340.466V69.016C340.466 70.552 340.626 70.712 342.162 70.712H344.53V71H333.842ZM348.373 71V70.712H349.493C351.029 70.712 351.189 70.264 351.189 68.728V50.264C351.189 48.728 351.029 48.28 349.493 48.28H348.373V47.992H356.245V48.28H355.413C353.877 48.28 353.685 48.728 353.685 50.264V68.824L362.773 47.992H367.797V48.28H366.645C365.109 48.28 364.949 48.728 364.949 50.264V68.728C364.949 70.264 365.109 70.712 366.645 70.712H367.797V71H359.893V70.712H360.757C362.293 70.712 362.453 70.264 362.453 68.728V50.168L353.365 71H348.373ZM368.904 71V70.712H370.024C371.56 70.712 371.72 70.264 371.72 68.728V50.264C371.72 48.728 371.56 48.28 370.024 48.28H368.904V47.992H376.776V48.28H375.944C374.408 48.28 374.216 48.728 374.216 50.264V58.616H382.984V50.264C382.984 48.728 382.792 48.28 381.256 48.28H380.424V47.992H388.328V48.28H387.176C385.64 48.28 385.48 48.728 385.48 50.264V68.728C385.48 70.264 385.64 70.712 387.176 70.712H388.328V71H380.424V70.712H381.288C382.824 70.712 382.984 70.264 382.984 68.728V59.192H374.216V68.728C374.216 70.264 374.408 70.712 375.944 70.712H376.776V71H368.904ZM389.435 71V70.712H390.555C392.091 70.712 392.251 70.264 392.251 68.728V50.264C392.251 48.728 392.091 48.28 390.555 48.28H389.435V47.992H397.307V48.28H396.475C394.939 48.28 394.747 48.728 394.747 50.264V58.616H403.515V50.264C403.515 48.728 403.323 48.28 401.787 48.28H400.955V47.992H408.859V48.28H407.707C406.171 48.28 406.011 48.728 406.011 50.264V68.728C406.011 70.264 406.171 70.712 407.707 70.712H408.859V71H400.955V70.712H401.819C403.355 70.712 403.515 70.264 403.515 68.728V59.192H394.747V68.728C394.747 70.264 394.939 70.712 396.475 70.712H397.307V71H389.435ZM422.255 71.256C415.119 71.256 410.383 66.552 410.383 59.48C410.383 52.44 415.119 47.736 422.255 47.736C429.327 47.736 434.063 52.44 434.063 59.48C434.063 66.552 429.327 71.256 422.255 71.256ZM422.351 70.68C428.143 70.68 431.279 67 431.279 60.088C431.279 52.44 428.047 48.312 422.127 48.312C416.303 48.312 413.167 52.024 413.167 58.904C413.167 66.584 416.367 70.68 422.351 70.68ZM435.623 71V70.712H436.743C438.279 70.712 438.439 70.264 438.439 68.728V50.264C438.439 48.728 438.279 48.28 436.743 48.28H435.623V47.992H443.495V48.28H442.663C441.127 48.28 440.935 48.728 440.935 50.264V68.824L450.023 47.992H455.047V48.28H453.895C452.359 48.28 452.199 48.728 452.199 50.264V68.728C452.199 70.264 452.359 70.712 453.895 70.712H455.047V71H447.143V70.712H448.007C449.543 70.712 449.703 70.264 449.703 68.728V50.168L440.615 71H435.623ZM441.383 42.232L442.535 42.136C442.535 43.896 443.975 45.336 445.799 45.336C447.591 45.336 449.063 43.896 449.063 42.136L450.215 42.232C450.215 44.312 448.231 45.912 445.799 45.912C443.335 45.912 441.383 44.312 441.383 42.232ZM105.309 117V116.712H106.429C107.965 116.712 108.125 116.52 108.125 114.728V103.464H107.901C103.421 103.464 102.749 107.368 102.077 111.112C101.501 114.344 100.925 117.384 97.8531 117.384C97.0531 117.384 96.1571 117 95.2611 116.2L94.8771 115.848L95.0371 115.624L95.4531 115.976C96.0291 116.424 96.5411 116.584 96.9891 116.584C98.8451 116.584 99.1331 114.6 99.4211 112.104C99.9331 108.2 100.605 104.2 105.597 103.048L105.629 102.92L100.541 96.488C99.1971 94.792 97.2771 94.28 95.8371 94.28H95.4531V93.992H102.525V94.28H102.237C101.245 94.28 100.573 94.568 100.573 95.176C100.573 95.464 100.765 95.88 101.149 96.36L106.205 102.728C106.493 103.112 107.101 103.176 108.125 103.176V95.976C108.125 94.44 107.965 94.28 106.429 94.28H106.109V93.992H112.637V94.28H112.349C110.813 94.28 110.621 94.44 110.621 95.976V103.176C111.741 103.176 112.221 103.112 112.541 102.728L117.597 96.36C117.981 95.88 118.173 95.464 118.173 95.176C118.173 94.568 117.501 94.28 116.509 94.28H116.221V93.992H123.293V94.28H122.909C121.501 94.28 119.549 94.792 118.205 96.488L113.117 102.92L113.149 103.048C118.205 104.232 118.845 108.328 119.293 112.072C119.613 114.6 119.869 116.584 121.757 116.584C122.205 116.584 122.717 116.424 123.293 115.976L123.709 115.624L123.901 115.848L123.485 116.2C122.589 117 121.693 117.384 120.893 117.384C117.789 117.384 117.245 114.344 116.669 111.08C115.997 107.336 115.293 103.464 110.845 103.464H110.621V114.728C110.621 116.552 110.813 116.712 112.349 116.712H113.469V117H105.309ZM134.24 110.408H133.952V108.648C133.952 105.576 132.288 105.224 130.496 105.224H129.216V114.728C129.216 115.432 128.896 116.008 128.512 116.392V116.424H134.88C137.952 116.424 139.424 115.176 139.648 112.104L139.84 109.544H140.352L139.808 118.216H139.52L139.616 116.712H139.584C139.36 116.936 138.912 117 138.4 117H123.904V116.712H125.024C126.56 116.712 126.72 116.552 126.72 115.016V95.976C126.72 94.44 126.56 94.28 125.024 94.28H123.904V93.992H136.672C137.184 93.992 137.632 94.056 137.856 94.28H137.888L137.792 92.808L138.08 92.776L138.656 101.448H138.08L137.952 99.208C137.76 95.752 136.096 94.568 133.024 94.568H128.512V94.6C128.896 94.984 129.216 95.56 129.216 96.264V104.648H130.496C132.288 104.648 133.952 104.328 133.952 101.256V100.136H134.24V110.408ZM141.56 117V116.712H142.68C144.216 116.712 144.376 116.264 144.376 114.728V96.264C144.376 94.728 144.216 94.28 142.68 94.28H141.56V93.992H149.432V94.28H148.6C147.064 94.28 146.872 94.728 146.872 96.264V104.616H155.64V96.264C155.64 94.728 155.448 94.28 153.912 94.28H153.08V93.992H160.984V94.28H159.832C158.296 94.28 158.136 94.728 158.136 96.264V114.728C158.136 116.264 158.296 116.712 159.832 116.712H160.984V117H153.08V116.712H153.944C155.48 116.712 155.64 116.264 155.64 114.728V105.192H146.872V114.728C146.872 116.264 147.064 116.712 148.6 116.712H149.432V117H141.56ZM162.636 105.416C162.636 98.408 167.084 93.736 173.804 93.736C175.948 93.736 178.028 94.408 179.66 95.784C179.82 95.944 179.948 96.2 180.012 96.424L180.236 96.36C180.172 96.104 180.14 95.784 180.14 95.432L180.076 93.128L180.364 93.096L180.652 102.344L180.076 102.376L179.98 99.4C179.82 96.52 176.716 94.28 173.548 94.28C168.3 94.28 165.484 98.024 165.484 104.904C165.484 112.584 168.428 116.68 173.9 116.68C176.94 116.68 179.884 115.016 181.004 112.328L181.548 112.52C180.268 115.72 177.196 117.256 173.836 117.256C167.116 117.256 162.636 112.52 162.636 105.416ZM211.831 113.096C206.039 113.096 202.199 109.224 202.199 103.4C202.199 97.608 206.039 93.736 211.831 93.736C217.559 93.736 221.399 97.608 221.399 103.4C221.399 109.224 217.559 113.096 211.831 113.096ZM211.927 112.52C216.247 112.52 218.615 109.544 218.615 104.008C218.615 97.736 216.183 94.312 211.703 94.312C207.319 94.312 204.983 97.32 204.983 102.824C204.983 109.128 207.383 112.52 211.927 112.52ZM182.967 117V116.712H184.087C185.623 116.712 185.783 116.52 185.783 114.728V95.976C185.783 94.44 185.623 94.28 184.087 94.28H182.967V93.992H190.295V94.28H190.007C188.439 94.28 188.279 94.408 188.279 95.912V103.176C189.431 103.176 190.039 103.112 190.359 102.728L195.415 96.36C195.799 95.88 195.991 95.464 195.991 95.176C195.991 94.568 195.319 94.28 194.327 94.28H194.039V93.992H201.271V94.28H200.727C199.319 94.28 197.367 94.792 196.023 96.488L190.935 102.92L190.967 103.048C193.975 103.752 195.895 106.408 197.943 109.288C200.695 113.256 203.831 117.544 210.487 117.544C215.415 117.544 219.447 114.824 220.471 113.96L221.175 113.352L221.367 113.576L220.663 114.184C218.455 116.072 214.071 118.536 209.303 118.536C201.559 118.536 197.719 113.128 194.679 108.776C192.631 105.864 190.935 103.464 188.663 103.464H188.279V114.728C188.279 114.792 188.279 114.856 188.279 114.888C188.279 116.552 188.503 116.712 190.007 116.712H191.127V117H182.967ZM222.967 117V116.712H224.087C225.623 116.712 225.783 116.264 225.783 114.728V96.264C225.783 94.728 225.623 94.28 224.087 94.28H222.967V93.992H230.839V94.28H230.007C228.471 94.28 228.279 94.728 228.279 96.264V114.824L237.367 93.992H242.391V94.28H241.239C239.703 94.28 239.543 94.728 239.543 96.264V114.728C239.543 116.264 239.703 116.712 241.239 116.712H242.391V117H234.487V116.712H235.351C236.887 116.712 237.047 116.264 237.047 114.728V96.168L227.959 117H222.967ZM228.727 88.232L229.879 88.136C229.879 89.896 231.319 91.336 233.143 91.336C234.935 91.336 236.407 89.896 236.407 88.136L237.559 88.232C237.559 90.312 235.575 91.912 233.143 91.912C230.679 91.912 228.727 90.312 228.727 88.232ZM252.542 105.416C252.542 98.408 256.99 93.736 263.71 93.736C265.854 93.736 267.934 94.408 269.566 95.784C269.726 95.944 269.854 96.2 269.918 96.424L270.142 96.36C270.078 96.104 270.046 95.784 270.046 95.432L269.982 93.128L270.27 93.096L270.558 102.344L269.982 102.376L269.886 99.4C269.726 96.52 266.622 94.28 263.454 94.28C258.206 94.28 255.39 98.024 255.39 104.904C255.39 112.584 258.334 116.68 263.806 116.68C266.846 116.68 269.79 115.016 270.91 112.328L271.454 112.52C270.174 115.72 267.102 117.256 263.742 117.256C257.022 117.256 252.542 112.52 252.542 105.416ZM272.873 117V116.712H273.993C275.529 116.712 275.689 116.264 275.689 114.728V96.264C275.689 94.728 275.529 94.28 273.993 94.28H272.873V93.992H280.745V94.28H279.913C278.377 94.28 278.185 94.728 278.185 96.264V114.824L287.273 93.992H292.297V94.28H291.145C289.609 94.28 289.449 94.728 289.449 96.264V114.728C289.449 116.264 289.609 116.712 291.145 116.712H292.297V117H284.393V116.712H285.257C286.793 116.712 286.953 116.264 286.953 114.728V96.168L277.865 117H272.873ZM295.964 93.992H298.716H307.484H312.828V94.28H311.676C310.14 94.28 309.98 94.728 309.98 96.264V114.728C309.98 116.264 310.14 116.712 311.676 116.712H312.828V117H304.924V116.712H305.788C307.324 116.712 307.484 116.264 307.484 114.728V94.568H299.996V102.376C299.996 110.92 297.532 116.392 295.388 118.184L293.532 116.04C295.868 113.992 299.132 109.512 299.164 103.144V96.648C299.164 94.408 298.908 94.28 296.668 94.28H295.964V93.992ZM326.223 117.256C319.087 117.256 314.351 112.552 314.351 105.48C314.351 98.44 319.087 93.736 326.223 93.736C333.295 93.736 338.031 98.44 338.031 105.48C338.031 112.552 333.295 117.256 326.223 117.256ZM326.319 116.68C332.111 116.68 335.247 113 335.247 106.088C335.247 98.44 332.015 94.312 326.095 94.312C320.271 94.312 317.135 98.024 317.135 104.904C317.135 112.584 320.335 116.68 326.319 116.68ZM339.592 117V116.712H340.712C342.248 116.712 342.408 116.264 342.408 114.728V96.264C342.408 94.728 342.248 94.28 340.712 94.28H339.592V93.992H347.464V94.28H346.632C345.096 94.28 344.904 94.728 344.904 96.264V114.824L353.992 93.992H359.016V94.28H357.864C356.328 94.28 356.168 94.728 356.168 96.264V114.728C356.168 116.264 356.328 116.712 357.864 116.712H359.016V117H351.112V116.712H351.976C353.512 116.712 353.672 116.264 353.672 114.728V96.168L344.584 117H339.592ZM345.352 88.232L346.504 88.136C346.504 89.896 347.944 91.336 349.768 91.336C351.56 91.336 353.032 89.896 353.032 88.136L354.184 88.232C354.184 90.312 352.2 91.912 349.768 91.912C347.304 91.912 345.352 90.312 345.352 88.232Z" fill="white"></path> </svg> 