<?xml version="1.0" encoding="UTF-8"?> <svg xmlns="http://www.w3.org/2000/svg" width="580" height="77" viewBox="0 0 580 77" fill="none"> <path d="M12.864 29.256C5.728 29.256 0.992 24.552 0.992 17.48C0.992 10.44 5.728 5.736 12.864 5.736C19.936 5.736 24.672 10.44 24.672 17.48C24.672 24.552 19.936 29.256 12.864 29.256ZM12.96 28.68C18.752 28.68 21.888 25 21.888 18.088C21.888 10.44 18.656 6.312 12.736 6.312C6.912 6.312 3.776 10.024 3.776 16.904C3.776 24.584 6.976 28.68 12.96 28.68ZM28.9203 29V28.712H31.3523C32.8883 28.712 33.0483 28.552 33.0483 27.016V6.568H31.1283C28.0563 6.568 26.9683 7.176 26.8083 10.248L26.6803 11.592L26.1363 11.528L26.6163 4.104L26.9363 4.136L26.8083 5.992H41.7203L41.5603 4.168L41.9123 4.136L42.3923 11.528L41.8162 11.592L41.7203 10.248C41.4963 7.176 40.4723 6.568 37.4003 6.568H35.5443V27.016C35.5443 28.552 35.7043 28.712 37.2403 28.712H39.6083V29H28.9203ZM43.745 17.416C43.745 10.408 48.193 5.736 54.913 5.736C57.057 5.736 59.137 6.408 60.769 7.784C60.929 7.944 61.057 8.2 61.121 8.424L61.345 8.36C61.281 8.104 61.249 7.784 61.249 7.432L61.185 5.128L61.473 5.096L61.761 14.344L61.185 14.376L61.089 11.4C60.929 8.52 57.825 6.28 54.657 6.28C49.409 6.28 46.593 10.024 46.593 16.904C46.593 24.584 49.537 28.68 55.009 28.68C58.049 28.68 60.993 27.016 62.113 24.328L62.657 24.52C61.377 27.72 58.305 29.256 54.945 29.256C48.225 29.256 43.745 24.52 43.745 17.416ZM65.973 26.728C66.421 26.824 67.317 26.952 67.765 26.952C70.133 26.952 71.029 25.896 71.669 24.36L71.925 23.752C72.021 23.528 72.085 23.24 72.085 22.952C72.085 22.632 72.021 22.312 71.893 21.96L65.941 8.264C65.333 6.792 65.109 6.28 64.021 6.28H63.541V5.992H69.717V6.28H67.445V6.344C67.893 6.504 68.245 7.272 68.501 7.848L73.109 18.344C73.301 18.792 73.333 19.496 73.333 19.688V19.752L73.557 19.688L78.037 8.264C78.165 7.944 78.261 7.592 78.261 7.304C78.261 6.728 77.877 6.28 76.693 6.28H75.221V5.992H80.725V6.248H80.533C79.477 6.248 79.221 6.856 78.677 8.264L71.925 25.352C70.869 27.976 69.237 29.256 67.605 29.256C66.517 29.256 65.973 28.424 65.973 26.728ZM84.2328 29V28.712H86.6648C88.2008 28.712 88.3608 28.552 88.3608 27.016V6.568H86.4408C83.3688 6.568 82.2808 7.176 82.1208 10.248L81.9928 11.592L81.4488 11.528L81.9288 4.104L82.2488 4.136L82.1208 5.992H97.0328L96.8728 4.168L97.2248 4.136L97.7048 11.528L97.1287 11.592L97.0328 10.248C96.8088 7.176 95.7848 6.568 92.7128 6.568H90.8568V27.016C90.8568 28.552 91.0168 28.712 92.5528 28.712H94.9208V29H84.2328ZM99.0575 17.416C99.0575 10.408 103.506 5.736 110.226 5.736C112.37 5.736 114.45 6.408 116.082 7.784C116.242 7.944 116.37 8.2 116.434 8.424L116.658 8.36C116.594 8.104 116.562 7.784 116.562 7.432L116.498 5.128L116.786 5.096L117.074 14.344L116.498 14.376L116.402 11.4C116.242 8.52 113.138 6.28 109.97 6.28C104.722 6.28 101.906 10.024 101.906 16.904C101.906 24.584 104.85 28.68 110.322 28.68C113.362 28.68 116.306 27.016 117.426 24.328L117.97 24.52C116.69 27.72 113.618 29.256 110.258 29.256C103.538 29.256 99.0575 24.52 99.0575 17.416ZM121.733 29V28.712H124.165C125.701 28.712 125.861 28.552 125.861 27.016V6.568H123.941C120.869 6.568 119.781 7.176 119.621 10.248L119.493 11.592L118.949 11.528L119.429 4.104L119.749 4.136L119.621 5.992H134.533L134.373 4.168L134.725 4.136L135.205 11.528L134.629 11.592L134.533 10.248C134.309 7.176 133.285 6.568 130.213 6.568H128.357V27.016C128.357 28.552 128.517 28.712 130.053 28.712H132.421V29H121.733ZM141.032 28.424H144.68C148.648 28.424 151.304 25.992 151.304 22.344C151.304 18.504 148.456 15.752 144.488 15.752H142.792V15.208H144.072C146.888 15.208 148.936 13.416 148.936 10.888C148.936 8.296 146.792 6.568 143.624 6.568H141.032V6.6C141.416 6.984 141.576 7.528 141.576 8.264V26.728C141.576 27.464 141.416 27.976 141.032 28.36V28.424ZM136.264 29V28.712H137.384C138.92 28.712 139.08 28.552 139.08 27.016V7.976C139.08 6.44 138.92 6.28 137.384 6.28H136.264V5.992H144.072C148.616 5.992 151.656 7.944 151.656 10.824C151.656 12.648 149.992 14.888 147.048 15.304V15.432C151.208 15.72 154.088 19.08 154.088 22.344C154.088 26.344 150.216 29 145.256 29H136.264ZM155.201 29V28.712H156.321C157.857 28.712 158.017 28.264 158.017 26.728V8.264C158.017 6.728 157.857 6.28 156.321 6.28H155.201V5.992H163.073V6.28H162.241C160.705 6.28 160.513 6.728 160.513 8.264V26.824L169.601 5.992H174.625V6.28H173.473C171.937 6.28 171.777 6.728 171.777 8.264V26.728C171.777 28.264 171.937 28.712 173.473 28.712H174.625V29H166.721V28.712H167.585C169.121 28.712 169.281 28.264 169.281 26.728V8.168L160.193 29H155.201ZM186.068 22.408H185.78V20.648C185.78 17.576 184.116 17.224 182.324 17.224H181.044V26.728C181.044 27.432 180.724 28.008 180.34 28.392V28.424H186.708C189.78 28.424 191.252 27.176 191.476 24.104L191.668 21.544H192.18L191.636 30.216H191.348L191.444 28.712H191.412C191.188 28.936 190.74 29 190.228 29H175.732V28.712H176.852C178.388 28.712 178.548 28.552 178.548 27.016V7.976C178.548 6.44 178.388 6.28 176.852 6.28H175.732V5.992H188.5C189.012 5.992 189.46 6.056 189.684 6.28H189.716L189.62 4.808L189.908 4.776L190.484 13.448H189.908L189.78 11.208C189.588 7.752 187.924 6.568 184.852 6.568H180.34V6.6C180.724 6.984 181.044 7.56 181.044 8.264V16.648H182.324C184.116 16.648 185.78 16.328 185.78 13.256V12.136H186.068V22.408ZM230.753 25.096C224.961 25.096 221.121 21.224 221.121 15.4C221.121 9.608 224.961 5.736 230.753 5.736C236.481 5.736 240.321 9.608 240.321 15.4C240.321 21.224 236.481 25.096 230.753 25.096ZM230.849 24.52C235.169 24.52 237.537 21.544 237.537 16.008C237.537 9.736 235.104 6.312 230.625 6.312C226.241 6.312 223.905 9.32 223.905 14.824C223.905 21.128 226.305 24.52 230.849 24.52ZM201.889 29V28.712H203.009C204.545 28.712 204.705 28.52 204.705 26.728V7.976C204.705 6.44 204.545 6.28 203.009 6.28H201.889V5.992H209.217V6.28H208.929C207.361 6.28 207.201 6.408 207.201 7.912V15.176C208.353 15.176 208.961 15.112 209.281 14.728L214.337 8.36C214.721 7.88 214.913 7.464 214.913 7.176C214.913 6.568 214.241 6.28 213.249 6.28H212.961V5.992H220.193V6.28H219.649C218.241 6.28 216.289 6.792 214.945 8.488L209.857 14.92L209.889 15.048C212.897 15.752 214.817 18.408 216.865 21.288C219.617 25.256 222.753 29.544 229.409 29.544C234.337 29.544 238.369 26.824 239.393 25.96L240.097 25.352L240.289 25.576L239.585 26.184C237.377 28.072 232.993 30.536 228.225 30.536C220.481 30.536 216.641 25.128 213.601 20.776C211.553 17.864 209.857 15.464 207.585 15.464H207.201V26.728C207.201 26.792 207.201 26.856 207.201 26.888C207.201 28.552 207.425 28.712 208.929 28.712H210.049V29H201.889ZM241.889 29V28.712H243.009C244.545 28.712 244.705 28.264 244.705 26.728V8.264C244.705 6.728 244.545 6.28 243.009 6.28H241.889V5.992H249.76V6.28H248.929C247.393 6.28 247.201 6.728 247.201 8.264V16.616H255.969V8.264C255.969 6.728 255.777 6.28 254.241 6.28H253.409V5.992H261.312V6.28H260.161C258.625 6.28 258.465 6.728 258.465 8.264V26.728C258.465 28.264 258.625 28.712 260.161 28.712H261.312V29H253.409V28.712H254.273C255.809 28.712 255.969 28.264 255.969 26.728V17.192H247.201V26.728C247.201 28.264 247.393 28.712 248.929 28.712H249.76V29H241.889ZM265.108 29V28.712H267.54C269.076 28.712 269.236 28.552 269.236 27.016V6.568H267.316C264.244 6.568 263.156 7.176 262.996 10.248L262.868 11.592L262.324 11.528L262.804 4.104L263.124 4.136L262.996 5.992H277.908L277.748 4.168L278.1 4.136L278.58 11.528L278.004 11.592L277.908 10.248C277.684 7.176 276.66 6.568 273.588 6.568H271.732V27.016C271.732 28.552 271.892 28.712 273.428 28.712H275.796V29H265.108ZM276.819 29V28.712H277.331C278.131 28.712 278.611 27.816 279.091 26.728L288.051 5.992H290.547V6.376C290.547 7.016 290.675 7.848 290.835 8.232L298.387 26.728C299.027 28.264 299.219 28.712 300.275 28.712H300.531V29H294.419V28.712H296.883V28.648C296.467 28.488 296.115 27.688 295.891 27.144L294.099 22.76H281.427L279.699 26.728C279.571 27.016 279.507 27.24 279.507 27.464C279.507 28.232 280.115 28.712 281.075 28.712H282.643V29H276.819ZM281.651 22.184H293.843L288.435 8.84C288.211 8.328 288.179 7.912 288.179 7.56H287.891C287.891 7.752 287.795 8.168 287.507 8.84L281.651 22.184ZM301.389 29V28.712H302.509C304.045 28.712 304.205 28.52 304.205 26.728V7.976C304.205 6.44 304.045 6.28 302.509 6.28H301.389V5.992H308.717V6.28H308.429C306.893 6.28 306.701 6.44 306.701 7.976V15.176C307.853 15.176 308.461 15.112 308.781 14.728L313.837 8.36C314.221 7.88 314.413 7.464 314.413 7.176C314.413 6.568 313.741 6.28 312.749 6.28H312.461V5.992H319.533V6.28H319.149C317.741 6.28 315.789 6.792 314.445 8.488L309.357 14.92L309.389 15.048C314.477 16.232 315.085 20.36 315.533 24.04C315.853 26.568 316.109 28.584 317.997 28.584C318.444 28.584 318.957 28.424 319.533 27.976L319.949 27.624L320.141 27.848L319.725 28.2C318.829 29 317.933 29.384 317.133 29.384C314.029 29.384 313.485 26.344 312.909 23.08C312.237 19.336 311.533 15.464 307.085 15.464H306.701V26.728C306.701 28.52 306.893 28.712 308.429 28.712H309.549V29H301.389ZM322.42 29V28.712H324.852C326.388 28.712 326.548 28.552 326.548 27.016V6.568H324.628C321.556 6.568 320.468 7.176 320.308 10.248L320.18 11.592L319.636 11.528L320.116 4.104L320.436 4.136L320.308 5.992H335.22L335.06 4.168L335.412 4.136L335.892 11.528L335.316 11.592L335.22 10.248C334.996 7.176 333.972 6.568 330.9 6.568H329.044V27.016C329.044 28.552 329.204 28.712 330.74 28.712H333.108V29H322.42ZM334.131 29V28.712H334.643C335.443 28.712 335.923 27.816 336.403 26.728L345.363 5.992H347.859V6.376C347.859 7.016 347.987 7.848 348.147 8.232L355.699 26.728C356.339 28.264 356.531 28.712 357.587 28.712H357.843V29H351.731V28.712H354.195V28.648C353.779 28.488 353.427 27.688 353.203 27.144L351.411 22.76H338.739L337.011 26.728C336.883 27.016 336.819 27.24 336.819 27.464C336.819 28.232 337.427 28.712 338.387 28.712H339.955V29H334.131ZM338.963 22.184H351.155L345.747 8.84C345.523 8.328 345.491 7.912 345.491 7.56H345.203C345.203 7.752 345.107 8.168 344.819 8.84L338.963 22.184ZM367.745 17.416C367.745 10.408 372.193 5.736 378.913 5.736C381.057 5.736 383.137 6.408 384.769 7.784C384.929 7.944 385.057 8.2 385.121 8.424L385.345 8.36C385.281 8.104 385.249 7.784 385.249 7.432L385.185 5.128L385.473 5.096L385.761 14.344L385.185 14.376L385.089 11.4C384.929 8.52 381.825 6.28 378.657 6.28C373.409 6.28 370.593 10.024 370.593 16.904C370.593 24.584 373.537 28.68 379.009 28.68C382.049 28.68 384.993 27.016 386.113 24.328L386.657 24.52C385.377 27.72 382.305 29.256 378.945 29.256C372.225 29.256 367.745 24.52 367.745 17.416ZM397.12 17.416C397.12 10.408 401.568 5.736 408.288 5.736C410.432 5.736 412.512 6.408 414.144 7.784C414.304 7.944 414.432 8.2 414.496 8.424L414.72 8.36C414.656 8.104 414.624 7.784 414.624 7.432L414.56 5.128L414.848 5.096L415.136 14.344L414.56 14.376L414.464 11.4C414.304 8.52 411.2 6.28 408.032 6.28C402.784 6.28 399.968 10.024 399.968 16.904C399.968 24.584 402.912 28.68 408.384 28.68C411.424 28.68 414.368 27.016 415.488 24.328L416.032 24.52C414.752 27.72 411.68 29.256 408.32 29.256C401.6 29.256 397.12 24.52 397.12 17.416ZM429.739 29.256C422.603 29.256 417.867 24.552 417.867 17.48C417.867 10.44 422.603 5.736 429.739 5.736C436.811 5.736 441.547 10.44 441.547 17.48C441.547 24.552 436.811 29.256 429.739 29.256ZM429.835 28.68C435.627 28.68 438.763 25 438.763 18.088C438.763 10.44 435.531 6.312 429.611 6.312C423.787 6.312 420.651 10.024 420.651 16.904C420.651 24.584 423.851 28.68 429.835 28.68ZM443.107 29V28.68H444.227C445.763 28.68 445.923 28.52 445.923 26.984V7.976C445.923 6.44 445.763 6.28 444.227 6.28H443.107V5.992H456.419C456.931 5.992 457.059 6.056 457.283 6.28H457.315L457.187 4.104L457.475 4.072L458.083 13.448H457.507L457.379 11.208C457.155 7.784 454.659 6.568 451.587 6.568H447.715V6.6C448.099 6.984 448.419 7.56 448.419 8.264V16.52H450.659C456.451 16.52 460.291 19.016 460.291 22.76C460.291 26.504 456.771 29 451.491 29H443.107ZM448.419 17.064V26.728C448.419 27.464 448.259 27.976 447.875 28.36V28.424H450.883C455.171 28.424 457.507 26.472 457.507 22.76C457.507 19.08 455.107 17.064 450.691 17.064H448.419ZM473.708 29.256C466.572 29.256 461.836 24.552 461.836 17.48C461.836 10.44 466.572 5.736 473.708 5.736C480.78 5.736 485.516 10.44 485.516 17.48C485.516 24.552 480.78 29.256 473.708 29.256ZM473.804 28.68C479.596 28.68 482.732 25 482.732 18.088C482.732 10.44 479.5 6.312 473.58 6.312C467.756 6.312 464.62 10.024 464.62 16.904C464.62 24.584 467.82 28.68 473.804 28.68ZM487.076 29V28.712H488.196C489.732 28.712 489.892 28.264 489.892 26.728V8.264C489.892 6.728 489.732 6.28 488.196 6.28H487.076V5.992H494.948V6.28H494.116C492.58 6.28 492.388 6.728 492.388 8.264V26.824L501.476 5.992H506.5V6.28H505.348C503.812 6.28 503.652 6.728 503.652 8.264V26.728C503.652 28.264 503.812 28.712 505.348 28.712H506.5V29H498.596V28.712H499.46C500.996 28.712 501.156 28.264 501.156 26.728V8.168L492.068 29H487.076ZM492.836 0.231998L493.988 0.135998C493.988 1.896 495.428 3.336 497.252 3.336C499.044 3.336 500.516 1.896 500.516 0.135998L501.668 0.231998C501.668 2.312 499.684 3.912 497.252 3.912C494.788 3.912 492.836 2.312 492.836 0.231998ZM0.576 75V74.712H1.696C3.232 74.712 3.392 74.264 3.392 72.728V54.264C3.392 52.728 3.232 52.28 1.696 52.28H0.576V51.992H8.448V52.28H7.616C6.08 52.28 5.888 52.728 5.888 54.264V72.824L14.976 51.992H20V52.28H18.848C17.312 52.28 17.152 52.728 17.152 54.264V72.728C17.152 74.264 17.312 74.712 18.848 74.712H20V75H12.096V74.712H12.96C14.496 74.712 14.656 74.264 14.656 72.728V54.168L5.568 75H0.576ZM30.1513 63.416C30.1513 56.408 34.5993 51.736 41.3193 51.736C43.4633 51.736 45.5433 52.408 47.1753 53.784C47.3353 53.944 47.4633 54.2 47.5273 54.424L47.7513 54.36C47.6873 54.104 47.6553 53.784 47.6553 53.432L47.5913 51.128L47.8793 51.096L48.1673 60.344L47.5913 60.376L47.4953 57.4C47.3353 54.52 44.2313 52.28 41.0633 52.28C35.8153 52.28 32.9993 56.024 32.9993 62.904C32.9993 70.584 35.9433 74.68 41.4153 74.68C44.4553 74.68 47.3993 73.016 48.5193 70.328L49.0633 70.52C47.7833 73.72 44.7113 75.256 41.3513 75.256C34.6313 75.256 30.1513 70.52 30.1513 63.416ZM55.2503 74.424H58.8983C62.8663 74.424 65.5223 71.992 65.5223 68.344C65.5223 64.504 62.6743 61.752 58.7063 61.752H57.0103V61.208H58.2903C61.1063 61.208 63.1543 59.416 63.1543 56.888C63.1543 54.296 61.0103 52.568 57.8423 52.568H55.2503V52.6C55.6343 52.984 55.7943 53.528 55.7943 54.264V72.728C55.7943 73.464 55.6343 73.976 55.2503 74.36V74.424ZM50.4823 75V74.712H51.6023C53.1383 74.712 53.2983 74.552 53.2983 73.016V53.976C53.2983 52.44 53.1383 52.28 51.6023 52.28H50.4823V51.992H58.2903C62.8343 51.992 65.8743 53.944 65.8743 56.824C65.8743 58.648 64.2103 60.888 61.2663 61.304V61.432C65.4263 61.72 68.3063 65.08 68.3063 68.344C68.3063 72.344 64.4343 75 59.4743 75H50.4823ZM81.7078 75.256C74.5718 75.256 69.8358 70.552 69.8358 63.48C69.8358 56.44 74.5718 51.736 81.7078 51.736C88.7798 51.736 93.5158 56.44 93.5158 63.48C93.5158 70.552 88.7798 75.256 81.7078 75.256ZM81.8038 74.68C87.5958 74.68 90.7318 71 90.7318 64.088C90.7318 56.44 87.4998 52.312 81.5798 52.312C75.7558 52.312 72.6198 56.024 72.6198 62.904C72.6198 70.584 75.8198 74.68 81.8038 74.68ZM105.412 68.408H105.124V66.648C105.124 63.576 103.46 63.224 101.668 63.224H100.388V72.728C100.388 73.432 100.068 74.008 99.684 74.392V74.424H106.052C109.124 74.424 110.596 73.176 110.82 70.104L111.012 67.544H111.524L110.98 76.216H110.692L110.788 74.712H110.756C110.532 74.936 110.084 75 109.572 75H95.076V74.712H96.196C97.732 74.712 97.892 74.552 97.892 73.016V53.976C97.892 52.44 97.732 52.28 96.196 52.28H95.076V51.992H107.844C108.356 51.992 108.804 52.056 109.028 52.28H109.06L108.964 50.808L109.252 50.776L109.828 59.448H109.252L109.124 57.208C108.932 53.752 107.268 52.568 104.196 52.568H99.684V52.6C100.068 52.984 100.388 53.56 100.388 54.264V62.648H101.668C103.46 62.648 105.124 62.328 105.124 59.256V58.136H105.412V68.408ZM112.732 75V74.712H113.852C115.388 74.712 115.548 74.264 115.548 72.728V54.264C115.548 52.728 115.388 52.28 113.852 52.28H112.732V51.992H120.604V52.28H119.772C118.236 52.28 118.044 52.728 118.044 54.264V72.824L127.132 51.992H132.156V52.28H131.004C129.468 52.28 129.308 52.728 129.308 54.264V72.728C129.308 74.264 129.468 74.712 131.004 74.712H132.156V75H124.252V74.712H125.116C126.652 74.712 126.812 74.264 126.812 72.728V54.168L117.724 75H112.732ZM118.492 46.232L119.644 46.136C119.644 47.896 121.084 49.336 122.908 49.336C124.7 49.336 126.172 47.896 126.172 46.136L127.324 46.232C127.324 48.312 125.34 49.912 122.908 49.912C120.444 49.912 118.492 48.312 118.492 46.232ZM141.764 75V74.712H142.884C144.42 74.712 144.58 74.264 144.58 72.728V54.264C144.58 52.728 144.42 52.28 142.884 52.28H141.764V51.992H149.635V52.28H148.804C147.268 52.28 147.076 52.728 147.076 54.264V72.824L156.164 51.992H161.188V52.28H160.036C158.5 52.28 158.34 52.728 158.34 54.264V72.728C158.34 74.264 158.5 74.712 160.036 74.712H161.188V75H153.284V74.712H154.148C155.684 74.712 155.844 74.264 155.844 72.728V54.168L146.756 75H141.764ZM162.839 63.416C162.839 56.408 167.287 51.736 174.007 51.736C176.151 51.736 178.231 52.408 179.863 53.784C180.023 53.944 180.151 54.2 180.215 54.424L180.439 54.36C180.375 54.104 180.343 53.784 180.343 53.432L180.279 51.128L180.567 51.096L180.855 60.344L180.279 60.376L180.183 57.4C180.023 54.52 176.919 52.28 173.751 52.28C168.503 52.28 165.687 56.024 165.687 62.904C165.687 70.584 168.631 74.68 174.103 74.68C177.143 74.68 180.087 73.016 181.207 70.328L181.751 70.52C180.471 73.72 177.399 75.256 174.039 75.256C167.319 75.256 162.839 70.52 162.839 63.416ZM185.514 75V74.712H187.946C189.482 74.712 189.642 74.552 189.642 73.016V52.568H187.722C184.65 52.568 183.562 53.176 183.402 56.248L183.274 57.592L182.73 57.528L183.21 50.104L183.53 50.136L183.402 51.992H198.314L198.154 50.168L198.506 50.136L198.986 57.528L198.41 57.592L198.314 56.248C198.09 53.176 197.066 52.568 193.994 52.568H192.138V73.016C192.138 74.552 192.298 74.712 193.834 74.712H196.202V75H185.514ZM200.045 75V74.712H201.165C202.701 74.712 202.861 74.264 202.861 72.728V54.264C202.861 52.728 202.701 52.28 201.165 52.28H200.045V51.992H207.917V52.28H207.085C205.549 52.28 205.357 52.728 205.357 54.264V72.824L214.445 51.992H219.469V52.28H218.317C216.781 52.28 216.621 52.728 216.621 54.264V72.728C216.621 74.264 216.781 74.712 218.317 74.712H219.469V75H211.565V74.712H212.429C213.965 74.712 214.125 74.264 214.125 72.728V54.168L205.037 75H200.045ZM220.576 75V74.712H221.696C223.232 74.712 223.392 74.264 223.392 72.728V54.264C223.392 52.728 223.232 52.28 221.696 52.28H220.576V51.992H228.448V52.28H227.616C226.08 52.28 225.888 52.728 225.888 54.264V62.616H234.656V54.264C234.656 52.728 234.464 52.28 232.928 52.28H232.096V51.992H240V52.28H238.848C237.312 52.28 237.152 52.728 237.152 54.264V72.728C237.152 74.264 237.312 74.712 238.848 74.712H240V75H232.096V74.712H232.96C234.496 74.712 234.656 74.264 234.656 72.728V63.192H225.888V72.728C225.888 74.264 226.08 74.712 227.616 74.712H228.448V75H220.576ZM241.107 75V74.712H242.227C243.763 74.712 243.923 74.264 243.923 72.728V54.264C243.923 52.728 243.763 52.28 242.227 52.28H241.107V51.992H248.979V52.28H248.147C246.611 52.28 246.419 52.728 246.419 54.264V62.616H255.187V54.264C255.187 52.728 254.995 52.28 253.459 52.28H252.627V51.992H260.531V52.28H259.379C257.843 52.28 257.683 52.728 257.683 54.264V72.728C257.683 74.264 257.843 74.712 259.379 74.712H260.531V75H252.627V74.712H253.491C255.027 74.712 255.187 74.264 255.187 72.728V63.192H246.419V72.728C246.419 74.264 246.611 74.712 248.147 74.712H248.979V75H241.107ZM273.927 75.256C266.791 75.256 262.055 70.552 262.055 63.48C262.055 56.44 266.791 51.736 273.927 51.736C280.999 51.736 285.735 56.44 285.735 63.48C285.735 70.552 280.999 75.256 273.927 75.256ZM274.023 74.68C279.815 74.68 282.951 71 282.951 64.088C282.951 56.44 279.719 52.312 273.799 52.312C267.975 52.312 264.839 56.024 264.839 62.904C264.839 70.584 268.039 74.68 274.023 74.68ZM287.295 75V74.712H288.415C289.951 74.712 290.111 74.264 290.111 72.728V54.264C290.111 52.728 289.951 52.28 288.415 52.28H287.295V51.992H295.167V52.28H294.335C292.799 52.28 292.607 52.728 292.607 54.264V72.824L301.695 51.992H306.719V52.28H305.567C304.031 52.28 303.871 52.728 303.871 54.264V72.728C303.871 74.264 304.031 74.712 305.567 74.712H306.719V75H298.815V74.712H299.679C301.215 74.712 301.375 74.264 301.375 72.728V54.168L292.287 75H287.295ZM293.055 46.232L294.207 46.136C294.207 47.896 295.647 49.336 297.471 49.336C299.263 49.336 300.735 47.896 300.735 46.136L301.887 46.232C301.887 48.312 299.903 49.912 297.471 49.912C295.007 49.912 293.055 48.312 293.055 46.232ZM325.606 75V74.712H326.726C328.262 74.712 328.422 74.52 328.422 72.728V61.464H328.198C323.718 61.464 323.046 65.368 322.374 69.112C321.798 72.344 321.222 75.384 318.15 75.384C317.35 75.384 316.454 75 315.558 74.2L315.174 73.848L315.334 73.624L315.75 73.976C316.326 74.424 316.838 74.584 317.286 74.584C319.142 74.584 319.43 72.6 319.718 70.104C320.23 66.2 320.902 62.2 325.894 61.048L325.926 60.92L320.838 54.488C319.494 52.792 317.574 52.28 316.134 52.28H315.75V51.992H322.822V52.28H322.534C321.542 52.28 320.87 52.568 320.87 53.176C320.87 53.464 321.062 53.88 321.446 54.36L326.502 60.728C326.79 61.112 327.398 61.176 328.422 61.176V53.976C328.422 52.44 328.262 52.28 326.726 52.28H326.406V51.992H332.934V52.28H332.646C331.11 52.28 330.918 52.44 330.918 53.976V61.176C332.038 61.176 332.518 61.112 332.838 60.728L337.894 54.36C338.278 53.88 338.47 53.464 338.47 53.176C338.47 52.568 337.798 52.28 336.806 52.28H336.518V51.992H343.59V52.28H343.206C341.798 52.28 339.846 52.792 338.502 54.488L333.414 60.92L333.446 61.048C338.502 62.232 339.142 66.328 339.59 70.072C339.91 72.6 340.166 74.584 342.054 74.584C342.502 74.584 343.014 74.424 343.59 73.976L344.006 73.624L344.198 73.848L343.782 74.2C342.886 75 341.99 75.384 341.19 75.384C338.086 75.384 337.542 72.344 336.966 69.08C336.294 65.336 335.59 61.464 331.142 61.464H330.918V72.728C330.918 74.552 331.11 74.712 332.646 74.712H333.766V75H325.606ZM354.537 68.408H354.249V66.648C354.249 63.576 352.585 63.224 350.793 63.224H349.513V72.728C349.513 73.432 349.193 74.008 348.809 74.392V74.424H355.177C358.249 74.424 359.721 73.176 359.945 70.104L360.137 67.544H360.649L360.105 76.216H359.817L359.913 74.712H359.881C359.657 74.936 359.209 75 358.697 75H344.201V74.712H345.321C346.857 74.712 347.017 74.552 347.017 73.016V53.976C347.017 52.44 346.857 52.28 345.321 52.28H344.201V51.992H356.969C357.481 51.992 357.929 52.056 358.153 52.28H358.185L358.089 50.808L358.377 50.776L358.953 59.448H358.377L358.249 57.208C358.057 53.752 356.393 52.568 353.321 52.568H348.809V52.6C349.193 52.984 349.513 53.56 349.513 54.264V62.648H350.793C352.585 62.648 354.249 62.328 354.249 59.256V58.136H354.537V68.408ZM361.857 75V74.712H362.977C364.513 74.712 364.673 74.264 364.673 72.728V54.264C364.673 52.728 364.513 52.28 362.977 52.28H361.857V51.992H369.729V52.28H368.897C367.361 52.28 367.169 52.728 367.169 54.264V62.616H375.937V54.264C375.937 52.728 375.745 52.28 374.209 52.28H373.377V51.992H381.281V52.28H380.129C378.593 52.28 378.433 52.728 378.433 54.264V72.728C378.433 74.264 378.593 74.712 380.129 74.712H381.281V75H373.377V74.712H374.241C375.777 74.712 375.937 74.264 375.937 72.728V63.192H367.169V72.728C367.169 74.264 367.361 74.712 368.897 74.712H369.729V75H361.857ZM382.933 63.416C382.933 56.408 387.381 51.736 394.101 51.736C396.245 51.736 398.325 52.408 399.957 53.784C400.117 53.944 400.245 54.2 400.309 54.424L400.533 54.36C400.469 54.104 400.437 53.784 400.437 53.432L400.373 51.128L400.661 51.096L400.949 60.344L400.373 60.376L400.277 57.4C400.117 54.52 397.013 52.28 393.845 52.28C388.597 52.28 385.781 56.024 385.781 62.904C385.781 70.584 388.725 74.68 394.197 74.68C397.237 74.68 400.181 73.016 401.301 70.328L401.845 70.52C400.565 73.72 397.493 75.256 394.133 75.256C387.413 75.256 382.933 70.52 382.933 63.416ZM432.128 71.096C426.336 71.096 422.496 67.224 422.496 61.4C422.496 55.608 426.336 51.736 432.128 51.736C437.856 51.736 441.696 55.608 441.696 61.4C441.696 67.224 437.856 71.096 432.128 71.096ZM432.224 70.52C436.544 70.52 438.912 67.544 438.912 62.008C438.912 55.736 436.479 52.312 432 52.312C427.616 52.312 425.28 55.32 425.28 60.824C425.28 67.128 427.68 70.52 432.224 70.52ZM403.264 75V74.712H404.384C405.92 74.712 406.08 74.52 406.08 72.728V53.976C406.08 52.44 405.92 52.28 404.384 52.28H403.264V51.992H410.592V52.28H410.304C408.736 52.28 408.576 52.408 408.576 53.912V61.176C409.728 61.176 410.336 61.112 410.656 60.728L415.712 54.36C416.096 53.88 416.288 53.464 416.288 53.176C416.288 52.568 415.616 52.28 414.624 52.28H414.336V51.992H421.568V52.28H421.024C419.616 52.28 417.664 52.792 416.32 54.488L411.232 60.92L411.264 61.048C414.272 61.752 416.192 64.408 418.24 67.288C420.992 71.256 424.128 75.544 430.784 75.544C435.712 75.544 439.744 72.824 440.768 71.96L441.472 71.352L441.664 71.576L440.96 72.184C438.752 74.072 434.368 76.536 429.6 76.536C421.856 76.536 418.016 71.128 414.976 66.776C412.928 63.864 411.232 61.464 408.96 61.464H408.576V72.728C408.576 72.792 408.576 72.856 408.576 72.888C408.576 74.552 408.8 74.712 410.304 74.712H411.424V75H403.264ZM443.264 75V74.712H444.384C445.92 74.712 446.08 74.264 446.08 72.728V54.264C446.08 52.728 445.92 52.28 444.384 52.28H443.264V51.992H451.135V52.28H450.304C448.768 52.28 448.576 52.728 448.576 54.264V72.824L457.664 51.992H462.688V52.28H461.536C460 52.28 459.84 52.728 459.84 54.264V72.728C459.84 74.264 460 74.712 461.536 74.712H462.688V75H454.784V74.712H455.648C457.184 74.712 457.344 74.264 457.344 72.728V54.168L448.256 75H443.264ZM449.024 46.232L450.176 46.136C450.176 47.896 451.616 49.336 453.44 49.336C455.232 49.336 456.704 47.896 456.704 46.136L457.856 46.232C457.856 48.312 455.872 49.912 453.44 49.912C450.976 49.912 449.024 48.312 449.024 46.232ZM472.839 63.416C472.839 56.408 477.287 51.736 484.007 51.736C486.151 51.736 488.231 52.408 489.863 53.784C490.023 53.944 490.151 54.2 490.215 54.424L490.439 54.36C490.375 54.104 490.343 53.784 490.343 53.432L490.279 51.128L490.567 51.096L490.855 60.344L490.279 60.376L490.183 57.4C490.023 54.52 486.919 52.28 483.751 52.28C478.503 52.28 475.687 56.024 475.687 62.904C475.687 70.584 478.631 74.68 484.103 74.68C487.143 74.68 490.087 73.016 491.207 70.328L491.751 70.52C490.471 73.72 487.399 75.256 484.039 75.256C477.319 75.256 472.839 70.52 472.839 63.416ZM493.17 75V74.712H494.29C495.826 74.712 495.986 74.264 495.986 72.728V54.264C495.986 52.728 495.826 52.28 494.29 52.28H493.17V51.992H501.042V52.28H500.21C498.674 52.28 498.482 52.728 498.482 54.264V72.824L507.57 51.992H512.594V52.28H511.442C509.906 52.28 509.746 52.728 509.746 54.264V72.728C509.746 74.264 509.906 74.712 511.442 74.712H512.594V75H504.69V74.712H505.554C507.09 74.712 507.25 74.264 507.25 72.728V54.168L498.162 75H493.17ZM516.261 51.992H519.013H527.781H533.125V52.28H531.973C530.437 52.28 530.277 52.728 530.277 54.264V72.728C530.277 74.264 530.437 74.712 531.973 74.712H533.125V75H525.221V74.712H526.085C527.621 74.712 527.781 74.264 527.781 72.728V52.568H520.293V60.376C520.293 68.92 517.829 74.392 515.685 76.184L513.829 74.04C516.165 71.992 519.429 67.512 519.461 61.144V54.648C519.461 52.408 519.205 52.28 516.965 52.28H516.261V51.992ZM546.52 75.256C539.384 75.256 534.648 70.552 534.648 63.48C534.648 56.44 539.384 51.736 546.52 51.736C553.592 51.736 558.328 56.44 558.328 63.48C558.328 70.552 553.592 75.256 546.52 75.256ZM546.616 74.68C552.408 74.68 555.544 71 555.544 64.088C555.544 56.44 552.312 52.312 546.392 52.312C540.568 52.312 537.432 56.024 537.432 62.904C537.432 70.584 540.632 74.68 546.616 74.68ZM559.889 75V74.712H561.009C562.545 74.712 562.705 74.264 562.705 72.728V54.264C562.705 52.728 562.545 52.28 561.009 52.28H559.889V51.992H567.76V52.28H566.929C565.393 52.28 565.201 52.728 565.201 54.264V72.824L574.289 51.992H579.312V52.28H578.161C576.625 52.28 576.465 52.728 576.465 54.264V72.728C576.465 74.264 576.625 74.712 578.161 74.712H579.312V75H571.409V74.712H572.273C573.809 74.712 573.969 74.264 573.969 72.728V54.168L564.881 75H559.889ZM565.649 46.232L566.801 46.136C566.801 47.896 568.241 49.336 570.065 49.336C571.857 49.336 573.329 47.896 573.329 46.136L574.481 46.232C574.481 48.312 572.497 49.912 570.065 49.912C567.601 49.912 565.649 48.312 565.649 46.232Z" fill="white"></path> </svg> 