<?xml version="1.0" encoding="UTF-8"?> <svg xmlns="http://www.w3.org/2000/svg" width="2415" height="211" viewBox="0 0 2415 211" fill="none"> <g filter="url(#filter0_b_306_289)"> <mask id="path-1-inside-1_306_289" fill="white"> <path fill-rule="evenodd" clip-rule="evenodd" d="M1208 46V46C1237.43 46 1250.85 0 1280.28 0H2405C2410.52 0 2415 4.47715 2415 10V170C2415 175.523 2410.52 180 2405 180H10C4.47717 180 0 175.523 0 170V10C0 4.47716 4.47715 0 10 0H1135.72C1165.15 0 1178.57 46 1208 46V46Z"></path> </mask> <path fill-rule="evenodd" clip-rule="evenodd" d="M1208 46V46C1237.43 46 1250.85 0 1280.28 0H2405C2410.52 0 2415 4.47715 2415 10V170C2415 175.523 2410.52 180 2405 180H10C4.47717 180 0 175.523 0 170V10C0 4.47716 4.47715 0 10 0H1135.72C1165.15 0 1178.57 46 1208 46V46Z" fill="#161616" fill-opacity="0.2"></path> <path d="M1280.28 1H2405V-1H1280.28V1ZM2405 1C2409.97 1 2414 5.02943 2414 10H2416C2416 3.92487 2411.08 -1 2405 -1V1ZM2414 10V170H2416V10H2414ZM2414 170C2414 174.971 2409.97 179 2405 179V181C2411.08 181 2416 176.075 2416 170H2414ZM2405 179H10V181H2405V179ZM10 179C5.02945 179 1 174.971 1 170H-1C-1 176.075 3.92489 181 10 181V179ZM1 170V10H-1V170H1ZM1 10C1 5.02944 5.02944 1 10 1V-1C3.92487 -1 -1 3.92487 -1 10H1ZM10 1H1135.72V-1H10V1ZM1135.72 1C1142.79 1 1148.95 3.75924 1154.7 7.99275C1160.46 12.2397 1165.76 17.9161 1171.13 23.6816C1176.47 29.4161 1181.89 35.2397 1187.84 39.6177C1193.8 44.0092 1200.36 47 1208 47V45C1200.93 45 1194.77 42.2408 1189.02 38.0073C1183.26 33.7603 1177.96 28.0839 1172.59 22.3184C1167.25 16.5839 1161.83 10.7603 1155.88 6.38225C1149.92 1.99076 1143.36 -1 1135.72 -1V1ZM1208 47C1215.64 47 1222.2 44.0092 1228.16 39.6177C1234.11 35.2397 1239.53 29.4161 1244.87 23.6816C1250.24 17.9161 1255.54 12.2397 1261.3 7.99275C1267.05 3.75924 1273.21 1 1280.28 1V-1C1272.64 -1 1266.08 1.99076 1260.12 6.38225C1254.17 10.7603 1248.75 16.5839 1243.41 22.3184C1238.04 28.0839 1232.74 33.7603 1226.98 38.0073C1221.23 42.2408 1215.07 45 1208 45V47Z" fill="white" fill-opacity="0.2" mask="url(#path-1-inside-1_306_289)"></path> </g> <path fill-rule="evenodd" clip-rule="evenodd" d="M1208 77V77C1237.43 77 1250.85 31 1280.28 31H2405C2410.52 31 2415 35.4772 2415 41V201C2415 206.523 2410.52 211 2405 211H10C4.47717 211 0 206.523 0 201V41C0 35.4772 4.47715 31 10 31H1135.72C1165.15 31 1178.57 77 1208 77V77Z" fill="#222027"></path> <defs> <filter id="filter0_b_306_289" x="-24" y="-24" width="2463" height="228" filterUnits="userSpaceOnUse" color-interpolation-filters="sRGB"> <feFlood flood-opacity="0" result="BackgroundImageFix"></feFlood> <feGaussianBlur in="BackgroundImageFix" stdDeviation="12"></feGaussianBlur> <feComposite in2="SourceAlpha" operator="in" result="effect1_backgroundBlur_306_289"></feComposite> <feBlend mode="normal" in="SourceGraphic" in2="effect1_backgroundBlur_306_289" result="shape"></feBlend> </filter> </defs> </svg> 