<?xml version="1.0" encoding="UTF-8"?> <svg xmlns="http://www.w3.org/2000/svg" width="2415" height="211" viewBox="0 0 2415 211" fill="none"> <g filter="url(#filter0_b_252_3006)"> <mask id="path-1-inside-1_252_3006" fill="white"> <path fill-rule="evenodd" clip-rule="evenodd" d="M1207 46V46C1236.43 46 1249.85 0 1279.28 0H2405C2410.52 0 2415 4.47715 2415 10V170C2415 175.523 2410.52 180 2405 180H10C4.47717 180 0 175.523 0 170V10C0 4.47716 4.47715 0 10 0H1134.72C1164.15 0 1177.57 46 1207 46V46Z"></path> </mask> <path fill-rule="evenodd" clip-rule="evenodd" d="M1207 46V46C1236.43 46 1249.85 0 1279.28 0H2405C2410.52 0 2415 4.47715 2415 10V170C2415 175.523 2410.52 180 2405 180H10C4.47717 180 0 175.523 0 170V10C0 4.47716 4.47715 0 10 0H1134.72C1164.15 0 1177.57 46 1207 46V46Z" fill="#161616" fill-opacity="0.2"></path> <path d="M1279.28 1H2405V-1H1279.28V1ZM2405 1C2409.97 1 2414 5.02943 2414 10H2416C2416 3.92487 2411.08 -1 2405 -1V1ZM2414 10V170H2416V10H2414ZM2414 170C2414 174.971 2409.97 179 2405 179V181C2411.08 181 2416 176.075 2416 170H2414ZM2405 179H10V181H2405V179ZM10 179C5.02945 179 1 174.971 1 170H-1C-1 176.075 3.92489 181 10 181V179ZM1 170V10H-1V170H1ZM1 10C1 5.02944 5.02944 1 10 1V-1C3.92487 -1 -1 3.92487 -1 10H1ZM10 1H1134.72V-1H10V1ZM1134.72 1C1141.79 1 1147.95 3.75924 1153.7 7.99275C1159.46 12.2397 1164.76 17.9161 1170.13 23.6816C1175.47 29.4161 1180.89 35.2397 1186.84 39.6177C1192.8 44.0092 1199.36 47 1207 47V45C1199.93 45 1193.77 42.2408 1188.02 38.0073C1182.26 33.7603 1176.96 28.0839 1171.59 22.3184C1166.25 16.5839 1160.83 10.7603 1154.88 6.38225C1148.92 1.99076 1142.36 -1 1134.72 -1V1ZM1207 47C1214.64 47 1221.2 44.0092 1227.16 39.6177C1233.11 35.2397 1238.53 29.4161 1243.87 23.6816C1249.24 17.9161 1254.54 12.2397 1260.3 7.99275C1266.05 3.75924 1272.21 1 1279.28 1V-1C1271.64 -1 1265.08 1.99076 1259.12 6.38225C1253.17 10.7603 1247.75 16.5839 1242.41 22.3184C1237.04 28.0839 1231.74 33.7603 1225.98 38.0073C1220.23 42.2408 1214.07 45 1207 45V47Z" fill="white" fill-opacity="0.2" mask="url(#path-1-inside-1_252_3006)"></path> </g> <path fill-rule="evenodd" clip-rule="evenodd" d="M1207 77V77C1236.43 77 1249.85 31 1279.28 31H2405C2410.52 31 2415 35.4772 2415 41V201C2415 206.523 2410.52 211 2405 211H10C4.47717 211 0 206.523 0 201V41C0 35.4772 4.47715 31 10 31H1134.72C1164.15 31 1177.57 77 1207 77V77Z" fill="#222027"></path> <defs> <filter id="filter0_b_252_3006" x="-24" y="-24" width="2463" height="228" filterUnits="userSpaceOnUse" color-interpolation-filters="sRGB"> <feFlood flood-opacity="0" result="BackgroundImageFix"></feFlood> <feGaussianBlur in="BackgroundImageFix" stdDeviation="12"></feGaussianBlur> <feComposite in2="SourceAlpha" operator="in" result="effect1_backgroundBlur_252_3006"></feComposite> <feBlend mode="normal" in="SourceGraphic" in2="effect1_backgroundBlur_252_3006" result="shape"></feBlend> </filter> </defs> </svg> 